<?xml version="1.0" encoding="utf-8"?>
<!-- Generator: Adobe Illustrator 20.1.0, SVG Export Plug-In . SVG Version: 6.00 Build 0)  -->
<svg version="1.1" id="Layer_1" xmlns="http://www.w3.org/2000/svg" xmlns:xlink="http://www.w3.org/1999/xlink" x="0px" y="0px"
	 viewBox="0 0 960 560" style="enable-background:new 0 0 960 560;" xml:space="preserve">
<style type="text/css">
	.st0{fill:#FFFFFF;}
	.st1{fill:#1A1A1A;}
</style>
<rect class="st0" width="960" height="560"/>
<g>
	<g>
		<path d="M404.5,389.3c1.5-0.4,2.5-0.7,3.5-1c14.8-4.6,29.5-9.3,44.4-13.6c7-2.1,14.2-3.5,21.4-5c2.5-0.5,5.2-0.6,7.7-0.5
			c2.3,0.2,4.5,0.8,6.7,1.5c1,0.3,2,1.2,2.8,2c2.4,2.7,1.8,4.8-1.6,5.9c-0.6,0.2-1.2,0.4-1.8,0.5c-11,2.1-21.6,5.7-32.2,9.4
			c-10.1,3.5-20.2,7.1-30.3,10.8c-8.7,3.1-17.5,5.8-26.7,6.9c-2.6,0.3-5.3,0.3-8,0.2c-2,0-3.8-0.8-5.4-2.2c-3.1-2.6-3.4-6.9-0.5-9.7
			c1.1-1.1,2.6-2,4-2.5c1.7-0.6,2.5-1.5,2.9-3.1c1.2-4.6,2.5-9.1,3.6-13.7c4.8-19.5,8.2-39.4,11.7-59.2
			c4.9-27.9,10.8-55.6,16.9-83.3c2.9-13,5.7-26,9.6-38.8c1-3.3,2.1-6.7,3.5-9.9c1.1-2.5,2.5-4.9,3.9-7.3c0.5-0.8,1.3-1.5,2.1-2
			c1.3-0.6,2.3,0.3,2.1,1.7c0,0.2-0.1,0.3-0.2,0.5c-3.8,9.2-5.1,19-6.8,28.6c-6.5,37.6-12.6,75.3-19.3,112.9
			c-3.9,22.1-8.8,44-13.2,66C405.1,386.1,404.9,387.5,404.5,389.3z"/>
		<path d="M499.9,331c1.2-0.4,2.2-0.7,3.2-1.1c15.3-5.8,30.6-11.6,46.3-16.2c5.9-1.7,11.8-2.8,18-2.4c0.9,0,1.8,0.1,2.6,0.4
			c1.3,0.4,1.6,1.4,0.8,2.5c-0.5,0.7-1.2,1.3-1.9,1.9c-4.1,3.7-8.9,6.2-14,8.3c-12.3,5.1-24.6,10.2-36.8,15.5
			c-5.3,2.3-10.4,5.1-15.7,7.5c-2.3,1-4.7,1.9-7.1,2.4c-2.7,0.6-5.3-0.2-7.6-2c-2.6-2-3.4-5-2.4-8.2c0.6-2,1.1-4,1.2-6
			c0.9-9.6,2.9-18.9,5.1-28.2c9.4-39.9,19-79.8,28.4-119.8c2-8.3,3.7-16.8,5.6-25.1c0.4-1.7,0.9-3.5,1.6-5.1
			c0.6-1.5,1.7-2.1,2.9-1.8c1.4,0.3,1.8,1.5,1.8,2.7c-0.2,2.9-0.2,5.9-0.7,8.8c-2,12-4.1,24-6.4,35.9c-4.2,22.5-8.5,45-12.9,67.4
			c-3.1,15.9-6.5,31.7-9.7,47.6c-0.9,4.2-1.5,8.4-2.3,12.7C499.8,329.2,499.9,329.9,499.9,331z"/>
		<path d="M477.4,226.5c6.4,0.1,11.8,5.8,11.5,13.2c-0.2,4.4-1.9,8.4-4.8,11.7c-3.7,4.4-8.3,7.9-13.4,10.5c-8.1,4-14.5-2.5-14.6-8.4
			c-0.1-4.5,0.4-9.1,3.5-12.9c0.5-0.7,0.8-1.6,1.1-2.4c1.4-3.5,3.4-6.7,6.6-8.9C470.1,227.3,473.1,226.4,477.4,226.5z M465.6,252.9
			c3.3-1.3,10-6.9,11.3-9.5c0.7-1.4,1.2-3,1.2-4.6c0.1-3.1-2-4.6-5-3.8c-1.2,0.3-2.3,0.9-3.3,1.6c-1.3,0.9-2.5,1.9-2.2,3.9
			c0.1,0.7-0.3,1.6-0.8,2.2c-1.7,2.3-1.8,5-1.8,7.6C465.1,251.2,465.4,252,465.6,252.9z"/>
		<path d="M577.2,222.7c-0.4,1.6-0.5,3.2-1.1,4.7c-2.4,6.1-6.1,11.1-11.6,14.7c-3.8,2.5-8,3.9-12.7,2.7c-1.4-0.4-2.9-1-4.2-1.8
			c-3.6-2.3-5.2-5.6-4.5-9.8c0.6-3.9,2-7.6,4.2-10.9c1.8-2.8,4-4.8,7.8-3.8c0.5,0.1,1.3-0.3,1.9-0.7c1.4-0.9,2.7-2,4.2-2.8
			c1.4-0.7,2.9-1.4,4.5-1.7C572.2,212,577.1,216.1,577.2,222.7z M568.9,223.2c0.2-3.3-1.1-4.3-3.9-3.3c-2.9,1-5.6,2.6-7.4,5
			c-2.2,2.9-4,6-5.3,9.4c-0.6,1.6-0.3,2.6,1.3,2.7c1.4,0.2,3.1,0,4.4-0.6c5.1-2.3,8.5-6.3,10.5-11.5
			C568.7,224.3,568.8,223.6,568.9,223.2z"/>
	</g>
</g>
<g>
	<path class="st1" d="M423.4,449c0-3.3,2.5-5.8,5.8-5.8c1.5,0,2.6,0.5,3.3,1l-0.6,2c-0.5-0.4-1.6-0.9-2.7-0.9c-2,0-3.5,1.6-3.5,3.7
		c0,2.1,1.5,3.7,3.5,3.7c1.2,0,2.3-0.5,2.8-0.9l0.6,2c-0.7,0.5-1.8,1.1-3.4,1.1C425.7,454.8,423.4,452.3,423.4,449z"/>
	<path class="st1" d="M433.6,449c0-3.3,2.4-5.8,5.8-5.8s5.8,2.5,5.8,5.8c0,3.3-2.4,5.8-5.8,5.8S433.6,452.3,433.6,449z M436,449
		c0,2.1,1.5,3.7,3.5,3.7c2,0,3.5-1.6,3.5-3.7c0-2.1-1.5-3.7-3.5-3.7C437.4,445.3,436,446.9,436,449z"/>
	<path class="st1" d="M452.9,451.1l3.2-7.6h2.9v11.2h-2.2v-8l-2.9,7.1h-2.1l-2.9-7.1v8h-2.2v-11.2h2.9L452.9,451.1z"/>
	<path class="st1" d="M461.2,443.4h2.3v11.2h-2.3V443.4z"/>
	<path class="st1" d="M467.8,447v7.6h-2.2v-11.2h2.3l4.8,7.7v-7.7h2.2v11.2h-2.2L467.8,447z"/>
	<path class="st1" d="M486.6,445.1l-1.4,1.5c-0.3-0.4-1.3-1.2-2.9-1.2c-2.2,0-3.6,1.6-3.6,3.7c0,2.3,1.5,3.7,3.6,3.7
		c1.6,0,2.4-0.6,2.7-0.9v-1.4h-2.1v-1.9h4.2v4.4c-1.2,1-2.5,1.8-4.9,1.8c-3.2,0-5.8-2.3-5.8-5.8c0-3.2,2.4-5.8,5.8-5.8
		C484.5,443.2,486,444.4,486.6,445.1z"/>
	<path class="st1" d="M499.5,445.7l-1.9,0.8c-0.2-0.5-0.7-1.2-1.6-1.2c-0.8,0-1.2,0.5-1.2,1.1c0,1.9,4.9,1.6,4.9,5.1
		c0,2-1.4,3.4-3.7,3.4c-2.4,0-3.4-1.7-3.7-2.6l1.9-0.9c0.3,0.7,0.9,1.4,1.9,1.4c0.8,0,1.3-0.4,1.3-1.2c0-1.9-4.8-1.6-4.8-5.2
		c0-1.9,1.4-3.2,3.5-3.2C498.3,443.2,499.2,444.8,499.5,445.7z"/>
	<path class="st1" d="M500.6,449c0-3.3,2.4-5.8,5.8-5.8s5.8,2.5,5.8,5.8c0,3.3-2.4,5.8-5.8,5.8S500.6,452.3,500.6,449z M503,449
		c0,2.1,1.5,3.7,3.5,3.7s3.5-1.6,3.5-3.7c0-2.1-1.5-3.7-3.5-3.7S503,446.9,503,449z"/>
	<path class="st1" d="M513.2,449c0-3.3,2.4-5.8,5.8-5.8s5.8,2.5,5.8,5.8c0,3.3-2.4,5.8-5.8,5.8S513.2,452.3,513.2,449z M515.6,449
		c0,2.1,1.5,3.7,3.5,3.7s3.5-1.6,3.5-3.7c0-2.1-1.5-3.7-3.5-3.7S515.6,446.9,515.6,449z"/>
	<path class="st1" d="M528.6,447v7.6h-2.2v-11.2h2.3l4.8,7.7v-7.7h2.2v11.2h-2.2L528.6,447z"/>
</g>
<g>
	<path d="M479.8,481.1c2.7,0,3,0,4.1,0.1c1,0,1.5,0.2,1.9,0.3c0.5,0.2,0.8,0.4,1.2,0.8c0.4,0.4,0.6,0.7,0.8,1.2
		c0.1,0.4,0.3,0.9,0.3,1.9c0,1.1,0.1,1.4,0.1,4.1c0,2.7,0,3-0.1,4.1c0,1-0.2,1.5-0.3,1.9c-0.2,0.5-0.4,0.8-0.8,1.2
		c-0.4,0.4-0.7,0.6-1.2,0.8c-0.4,0.1-0.9,0.3-1.9,0.3c-1.1,0-1.4,0.1-4.1,0.1c-2.7,0-3,0-4.1-0.1c-1,0-1.5-0.2-1.9-0.3
		c-0.5-0.2-0.8-0.4-1.2-0.8c-0.4-0.4-0.6-0.7-0.8-1.2c-0.1-0.4-0.3-0.9-0.3-1.9c0-1.1-0.1-1.4-0.1-4.1c0-2.7,0-3,0.1-4.1
		c0-1,0.2-1.5,0.3-1.9c0.2-0.5,0.4-0.8,0.8-1.2c0.4-0.4,0.7-0.6,1.2-0.8c0.4-0.1,0.9-0.3,1.9-0.3
		C476.8,481.1,477.1,481.1,479.8,481.1 M479.8,479.2c-2.8,0-3.1,0-4.2,0.1c-1.1,0-1.8,0.2-2.5,0.5c-0.7,0.3-1.2,0.6-1.8,1.2
		c-0.6,0.6-0.9,1.1-1.2,1.8c-0.3,0.6-0.4,1.4-0.5,2.5c0,1.1-0.1,1.4-0.1,4.2s0,3.1,0.1,4.2c0,1.1,0.2,1.8,0.5,2.5
		c0.3,0.7,0.6,1.2,1.2,1.8s1.1,0.9,1.8,1.2c0.6,0.3,1.4,0.4,2.5,0.5c1.1,0,1.4,0.1,4.2,0.1c2.8,0,3.1,0,4.2-0.1
		c1.1,0,1.8-0.2,2.5-0.5c0.7-0.3,1.2-0.6,1.8-1.2s0.9-1.1,1.2-1.8c0.3-0.6,0.4-1.4,0.5-2.5c0-1.1,0.1-1.4,0.1-4.2s0-3.1-0.1-4.2
		c0-1.1-0.2-1.8-0.5-2.5c-0.3-0.7-0.6-1.2-1.2-1.8c-0.6-0.6-1.1-0.9-1.8-1.2c-0.6-0.3-1.4-0.4-2.5-0.5
		C482.9,479.2,482.6,479.2,479.8,479.2L479.8,479.2z"/>
	<path d="M479.8,484.2c-2.9,0-5.2,2.3-5.2,5.2s2.3,5.2,5.2,5.2c2.9,0,5.2-2.3,5.2-5.2S482.7,484.2,479.8,484.2z M479.8,492.8
		c-1.9,0-3.4-1.5-3.4-3.4c0-1.9,1.5-3.4,3.4-3.4c1.9,0,3.4,1.5,3.4,3.4C483.2,491.3,481.7,492.8,479.8,492.8z"/>
	<circle cx="485.3" cy="484" r="1.2"/>
</g>
</svg>
