<?xml version="1.0" encoding="UTF-8" standalone="no"?>
<svg
   xmlns:dc="http://purl.org/dc/elements/1.1/"
   xmlns:cc="http://creativecommons.org/ns#"
   xmlns:rdf="http://www.w3.org/1999/02/22-rdf-syntax-ns#"
   xmlns:svg="http://www.w3.org/2000/svg"
   xmlns="http://www.w3.org/2000/svg"
   viewBox="0 0 1280 746.66669"
   height="746.66669"
   width="1280"
   xml:space="preserve"
   id="svg2"
   version="1.1"><metadata
     id="metadata8"><rdf:RDF><cc:Work
         rdf:about=""><dc:format>image/svg+xml</dc:format><dc:type
           rdf:resource="http://purl.org/dc/dcmitype/StillImage" /></cc:Work></rdf:RDF></metadata><defs
     id="defs6"><clipPath
       id="clipPath18"
       clipPathUnits="userSpaceOnUse"><path
         id="path16"
         d="M 0,560 H 960 V 0 H 0 Z" /></clipPath></defs><g
     transform="matrix(1.3333333,0,0,-1.3333333,0,746.66667)"
     id="g10"><g
       id="g12"><g
         clip-path="url(#clipPath18)"
         id="g14"><g
           transform="translate(405.6777,221.3456)"
           id="g20"><path
             id="path22"
             style="fill:#000000;fill-opacity:1;fill-rule:nonzero;stroke:none"
             d="m 0,0 c 1.495,0.408 2.507,0.654 3.499,0.96 14.78,4.555 29.512,9.275 44.356,13.61 7.02,2.051 14.232,3.473 21.403,4.959 2.511,0.52 5.175,0.636 7.738,0.466 2.271,-0.152 4.545,-0.819 6.726,-1.535 1.039,-0.341 2.009,-1.198 2.762,-2.043 2.431,-2.728 1.819,-4.801 -1.649,-5.943 C 84.242,10.279 83.639,10.093 83.026,9.978 72.004,7.893 61.433,4.243 50.869,0.603 40.726,-2.892 30.635,-6.537 20.538,-10.161 c -8.689,-3.118 -17.505,-5.758 -26.689,-6.911 -2.642,-0.332 -5.347,-0.296 -8.018,-0.23 -2.006,0.05 -3.831,0.85 -5.385,2.161 -3.102,2.618 -3.398,6.853 -0.494,9.677 1.119,1.088 2.567,2.016 4.035,2.521 1.661,0.571 2.512,1.54 2.929,3.121 1.208,4.581 2.51,9.138 3.642,13.737 4.812,19.549 8.217,39.379 11.678,59.195 4.877,27.926 10.754,55.649 16.895,83.319 2.886,13.004 5.664,26.036 9.595,38.779 1.027,3.328 2.12,6.653 3.466,9.86 1.065,2.539 2.496,4.935 3.907,7.31 0.475,0.8 1.291,1.528 2.122,1.953 1.259,0.644 2.344,-0.324 2.083,-1.701 -0.033,-0.173 -0.106,-0.341 -0.174,-0.506 -3.804,-9.182 -5.101,-18.97 -6.765,-28.646 C 26.891,145.855 20.769,108.172 14.056,70.593 10.111,48.508 5.299,26.577 0.88,4.577 0.606,3.212 0.354,1.842 0,0" /></g><g
           transform="translate(501.0094,279.7299)"
           id="g24"><path
             id="path26"
             style="fill:#000000;fill-opacity:1;fill-rule:nonzero;stroke:none"
             d="m 0,0 c 1.225,0.424 2.217,0.741 3.19,1.107 15.31,5.766 30.587,11.62 46.296,16.25 5.874,1.731 11.831,2.78 17.979,2.436 0.887,-0.049 1.805,-0.103 2.641,-0.368 1.282,-0.407 1.582,-1.42 0.764,-2.512 -0.529,-0.707 -1.22,-1.301 -1.88,-1.902 -4.094,-3.73 -8.942,-6.179 -14,-8.296 C 42.704,1.571 30.401,-3.534 18.176,-8.819 12.848,-11.122 7.731,-13.911 2.442,-16.313 c -2.254,-1.024 -4.654,-1.856 -7.074,-2.352 -2.726,-0.558 -5.336,0.197 -7.558,1.96 -2.57,2.038 -3.356,5.022 -2.432,8.175 0.573,1.953 1.06,3.97 1.248,5.989 0.89,9.558 2.942,18.904 5.141,28.21 9.435,39.928 18.984,79.83 28.434,119.754 1.976,8.349 3.684,16.76 5.568,25.131 0.391,1.736 0.907,3.463 1.566,5.114 0.611,1.531 1.692,2.068 2.912,1.765 1.391,-0.345 1.832,-1.453 1.769,-2.663 -0.152,-2.942 -0.233,-5.913 -0.728,-8.807 C 29.241,153.982 27.139,142.009 24.895,130.064 20.671,107.574 16.413,85.09 12.02,62.633 8.913,46.755 5.539,30.929 2.331,15.071 1.481,10.867 0.787,6.63 0.057,2.402 -0.057,1.739 0.019,1.042 0,0" /></g><g
           transform="translate(466.7038,357.8084)"
           id="g28"><path
             id="path30"
             style="fill:#000000;fill-opacity:1;fill-rule:nonzero;stroke:none"
             d="m 0,0 c 3.325,1.32 10.006,6.875 11.258,9.517 0.668,1.41 1.204,3.023 1.248,4.56 0.086,3.05 -2.01,4.57 -4.954,3.754 C 6.377,17.506 5.212,16.938 4.212,16.239 2.916,15.332 1.684,14.319 2.043,12.324 2.164,11.652 1.708,10.731 1.25,10.124 -0.488,7.819 -0.585,5.166 -0.521,2.482 -0.502,1.668 -0.189,0.86 0,0 M 11.842,26.418 C 18.224,26.334 23.69,20.603 23.364,13.258 23.167,8.811 21.446,4.88 18.6,1.556 14.85,-2.824 10.311,-6.351 5.164,-8.92 c -8.063,-4.025 -14.475,2.533 -14.577,8.413 -0.079,4.516 0.398,9.109 3.462,12.915 0.538,0.668 0.798,1.575 1.128,2.395 1.427,3.547 3.426,6.665 6.624,8.887 2.728,1.895 5.771,2.764 10.041,2.728" /></g><g
           transform="translate(570.0538,387.4793)"
           id="g32"><path
             id="path34"
             style="fill:#000000;fill-opacity:1;fill-rule:nonzero;stroke:none"
             d="m 0,0 c 0.159,3.323 -1.052,4.275 -3.895,3.342 -2.944,-0.966 -5.553,-2.578 -7.416,-5.033 -2.181,-2.874 -4.022,-5.997 -5.284,-9.42 -0.577,-1.565 -0.275,-2.56 1.329,-2.731 1.435,-0.153 3.084,-0.014 4.38,0.569 5.122,2.304 8.536,6.288 10.472,11.539 C -0.171,-1.073 -0.082,-0.355 0,0 M 8.324,0.469 C 7.964,-1.085 7.785,-2.71 7.214,-4.182 4.862,-10.243 1.075,-15.246 -4.378,-18.846 c -3.844,-2.538 -8.049,-3.901 -12.695,-2.704 -1.445,0.373 -2.896,0.968 -4.159,1.757 -3.603,2.253 -5.187,5.571 -4.495,9.806 0.64,3.915 2.03,7.587 4.2,10.913 1.807,2.769 4.032,4.789 7.773,3.768 0.53,-0.145 1.312,0.33 1.877,0.68 1.437,0.891 2.75,2.002 4.239,2.782 1.406,0.738 2.932,1.367 4.479,1.697 6.41,1.366 11.375,-2.794 11.483,-9.384" /></g></g></g><g
       id="text38"
       style="font-variant:normal;font-weight:500;font-stretch:normal;font-size:16px;font-family:Geomanist;-inkscape-font-specification:Geomanist-Medium;writing-mode:lr-tb;fill:#191919;fill-opacity:1;fill-rule:nonzero;stroke:none"
       transform="matrix(1,0,0,-1,421.6191,152.374)"
       aria-label="COMING SOON"><path
         id="path40"
         style=""
         d="m 10.304688,-10.765625 v 1.6640625 Q 9.5078125,-9.84375 8.6015625,-10.210938 7.703125,-10.578125 6.6875,-10.578125 q -2,0 -3.0625,1.2265625 -1.0625,1.21875 -1.0625,3.53125 0,2.3046875 1.0625,3.53125 1.0625,1.21875 3.0625,1.21875 1.015625,0 1.9140625,-0.3671875 0.90625,-0.3671875 1.7031255,-1.109375 v 1.6484375 q -0.8281255,0.5625 -1.757813,0.84375 -0.921875,0.28125 -1.953125,0.28125 -2.6484375,0 -4.171875,-1.6171875 -1.5234375,-1.625 -1.5234375,-4.4296875 0,-2.8125 1.5234375,-4.4296875 1.5234375,-1.625 4.171875,-1.625 1.046875,0 1.96875,0.28125 0.9296875,0.273437 1.742188,0.828125 z" /><path
         id="path42"
         style=""
         d="m 16.512688,-10.59375 q -1.71875,0 -2.734375,1.28125 -1.007813,1.28125 -1.007813,3.4921875 0,2.203125 1.007813,3.484375 1.015625,1.28125 2.734375,1.28125 1.71875,0 2.71875,-1.28125 1.007812,-1.28125 1.007812,-3.484375 0,-2.2109375 -1.007812,-3.4921875 -1,-1.28125 -2.71875,-1.28125 z m 0,-1.28125 q 2.453125,0 3.921875,1.648437 1.46875,1.6406255 1.46875,4.4062505 0,2.7578125 -1.46875,4.40625 -1.46875,1.640625 -3.921875,1.640625 -2.460938,0 -3.9375,-1.640625 -1.46875,-1.640625 -1.46875,-4.40625 0,-2.765625 1.46875,-4.4062505 1.476562,-1.648437 3.9375,-1.648437 z" /><path
         id="path44"
         style=""
         d="m 24.386312,-11.664063 h 2.351563 l 2.976562,7.9375005 2.992188,-7.9375005 h 2.351562 V 0 h -1.539062 v -10.242188 l -3.007813,8.0000005 H 28.925375 L 25.917562,-10.242188 V 0 h -1.53125 z" /><path
         id="path46"
         style=""
         d="m 38.738312,-11.664063 h 1.578125 V 0 h -1.578125 z" /><path
         id="path48"
         style=""
         d="m 43.138313,-11.664063 h 2.125 l 5.171875,9.757813 v -9.757813 h 1.53125 V 0 h -2.125 L 44.669563,-9.7578125 V 0 h -1.53125 z" /><path
         id="path50"
         style=""
         d="M 62.499439,-1.6640625 V -4.796875 H 59.921314 V -6.09375 h 4.140625 v 5.0078125 q -0.914062,0.6484375 -2.015625,0.984375 -1.101562,0.328125 -2.351562,0.328125 -2.734375,0 -4.28125,-1.59375 -1.539063,-1.6015625 -1.539063,-4.453125 0,-2.859375 1.539063,-4.4531255 1.546875,-1.601562 4.28125,-1.601562 1.140625,0 2.164062,0.28125 1.03125,0.28125 1.898438,0.828125 v 1.6796875 q -0.875,-0.7421875 -1.859375,-1.1171875 -0.984375,-0.375 -2.070313,-0.375 -2.140625,0 -3.21875,1.1953125 -1.070312,1.1953125 -1.070312,3.5625 0,2.359375 1.070312,3.5546875 1.078125,1.1953125 3.21875,1.1953125 0.835938,0 1.492188,-0.140625 0.65625,-0.1484375 1.179687,-0.453125 z" /><path
         id="path52"
         style=""
         d="m 77.458504,-11.28125 v 1.5390625 q -0.898438,-0.4296875 -1.695313,-0.6406255 -0.796875,-0.210937 -1.539062,-0.210937 -1.289063,0 -1.992188,0.5 -0.695312,0.5 -0.695312,1.421875 0,0.7734375 0.460937,1.171875 0.46875,0.390625 1.765625,0.6328125 l 0.953125,0.1953125 q 1.765625,0.3359375 2.601563,1.1875 0.84375,0.84375 0.84375,2.265625 0,1.6953125 -1.140625,2.5703125 -1.132813,0.875 -3.328125,0.875 -0.828125,0 -1.765625,-0.1875 -0.929688,-0.1875 -1.929688,-0.5546875 v -1.625 q 0.960938,0.5390625 1.882813,0.8125 0.921875,0.2734375 1.8125,0.2734375 1.351562,0 2.085937,-0.53125 0.734375,-0.53125 0.734375,-1.515625 0,-0.859375 -0.53125,-1.34375 -0.523437,-0.484375 -1.726562,-0.7265625 l -0.960938,-0.1875 q -1.765625,-0.3515625 -2.554687,-1.1015625 -0.789063,-0.75 -0.789063,-2.0859375 0,-1.546875 1.085938,-2.4375 1.09375,-0.890625 3.007812,-0.890625 0.820313,0 1.671875,0.148437 0.851563,0.148438 1.742188,0.445313 z" /><path
         id="path54"
         style=""
         d="m 83.53669,-10.59375 q -1.71875,0 -2.734375,1.28125 -1.007813,1.28125 -1.007813,3.4921875 0,2.203125 1.007813,3.484375 1.015625,1.28125 2.734375,1.28125 1.71875,0 2.71875,-1.28125 1.007812,-1.28125 1.007812,-3.484375 0,-2.2109375 -1.007812,-3.4921875 -1,-1.28125 -2.71875,-1.28125 z m 0,-1.28125 q 2.453125,0 3.921875,1.648437 1.46875,1.6406255 1.46875,4.4062505 0,2.7578125 -1.46875,4.40625 -1.46875,1.640625 -3.921875,1.640625 -2.460938,0 -3.9375,-1.640625 -1.46875,-1.640625 -1.46875,-4.40625 0,-2.765625 1.46875,-4.4062505 1.476562,-1.648437 3.9375,-1.648437 z" /><path
         id="path56"
         style=""
         d="m 96.144684,-10.59375 q -1.71875,0 -2.734375,1.28125 -1.007813,1.28125 -1.007813,3.4921875 0,2.203125 1.007813,3.484375 1.015625,1.28125 2.734375,1.28125 1.71875,0 2.71875,-1.28125 1.007812,-1.28125 1.007812,-3.484375 0,-2.2109375 -1.007812,-3.4921875 -1,-1.28125 -2.71875,-1.28125 z m 0,-1.28125 q 2.453125,0 3.921876,1.648437 1.46875,1.6406255 1.46875,4.4062505 0,2.7578125 -1.46875,4.40625 -1.468751,1.640625 -3.921876,1.640625 -2.460938,0 -3.9375,-1.640625 -1.46875,-1.640625 -1.46875,-4.40625 0,-2.765625 1.46875,-4.4062505 1.476562,-1.648437 3.9375,-1.648437 z" /><path
         id="path58"
         style=""
         d="m 104.01831,-11.664063 h 2.125 l 5.17188,9.757813 v -9.757813 h 1.53125 V 0 h -2.125 l -5.17188,-9.7578125 V 0 h -1.53125 z" /></g></g></svg>