<svg id="Layer_1" data-name="Layer 1" xmlns="http://www.w3.org/2000/svg" viewBox="0 0 194.76 346.1"><defs><style>.cls-1{font-size:16px;fill:#1a1a1a;font-family:Geomanist-Medium, Geomanist;}</style></defs><title>LOLO_WEB_2</title><path d="M404.53,389.34c1.5-.41,2.51-.65,3.5-1,14.78-4.56,29.51-9.28,44.36-13.61,7-2.05,14.23-3.47,21.4-5a29,29,0,0,1,7.74-.47,27.9,27.9,0,0,1,6.73,1.53,7,7,0,0,1,2.76,2c2.43,2.73,1.82,4.8-1.65,5.94a14.36,14.36,0,0,1-1.81.5c-11,2.08-21.59,5.73-32.16,9.37-10.14,3.49-20.23,7.14-30.33,10.76-8.69,3.12-17.5,5.76-26.69,6.91a53.91,53.91,0,0,1-8,.23,8.63,8.63,0,0,1-5.38-2.16,6.33,6.33,0,0,1-.49-9.68,11.23,11.23,0,0,1,4-2.52,4.12,4.12,0,0,0,2.93-3.12c1.21-4.58,2.51-9.14,3.64-13.74,4.81-19.55,8.22-39.38,11.68-59.19,4.88-27.93,10.75-55.65,16.9-83.32,2.89-13,5.66-26,9.6-38.78,1-3.33,2.12-6.65,3.47-9.86a60,60,0,0,1,3.91-7.31,5.46,5.46,0,0,1,2.12-2c1.26-.64,2.34.32,2.08,1.7a2.64,2.64,0,0,1-.17.51c-3.8,9.18-5.1,19-6.77,28.65-6.47,37.62-12.6,75.31-19.31,112.88-3.95,22.09-8.76,44-13.18,66C405.13,386.12,404.88,387.49,404.53,389.34Z" transform="translate(-382.47 -153.44)"/><path d="M499.86,331c1.22-.42,2.22-.74,3.19-1.11,15.31-5.77,30.59-11.62,46.3-16.25a52.81,52.81,0,0,1,18-2.44,10.78,10.78,0,0,1,2.64.37,1.45,1.45,0,0,1,.76,2.51,14.27,14.27,0,0,1-1.88,1.9c-4.09,3.73-8.94,6.18-14,8.3-12.29,5.14-24.59,10.25-36.81,15.53-5.33,2.3-10.45,5.09-15.73,7.49a33.57,33.57,0,0,1-7.07,2.35,9,9,0,0,1-7.56-2,7.3,7.3,0,0,1-2.43-8.18,32.05,32.05,0,0,0,1.25-6,205.8,205.8,0,0,1,5.14-28.21q14.15-59.89,28.43-119.75c2-8.35,3.68-16.76,5.57-25.13a34,34,0,0,1,1.57-5.11c.61-1.53,1.69-2.07,2.91-1.77a2.33,2.33,0,0,1,1.77,2.66,75.5,75.5,0,0,1-.73,8.81c-2,12-4.15,24-6.39,35.9q-6.34,33.73-12.88,67.43c-3.11,15.88-6.48,31.7-9.69,47.56-.85,4.2-1.54,8.44-2.27,12.67A18.1,18.1,0,0,0,499.86,331Z" transform="translate(-382.47 -153.44)"/><path d="M477.4,226.46c6.38.08,11.85,5.82,11.52,13.16a19,19,0,0,1-4.76,11.7,42.74,42.74,0,0,1-13.44,10.48c-8.06,4-14.47-2.53-14.58-8.41-.08-4.52.4-9.11,3.46-12.91a9.28,9.28,0,0,0,1.13-2.4,18.92,18.92,0,0,1,6.62-8.89C470.08,227.29,473.13,226.42,477.4,226.46Zm-11.84,26.42c3.33-1.32,10-6.88,11.26-9.52a11.83,11.83,0,0,0,1.25-4.56c.09-3.05-2-4.57-5-3.75a11.13,11.13,0,0,0-3.34,1.59c-1.3.91-2.53,1.92-2.17,3.91a3.32,3.32,0,0,1-.79,2.2c-1.74,2.31-1.84,5-1.77,7.64A13.68,13.68,0,0,0,465.56,252.87Z" transform="translate(-382.47 -153.44)"/><path d="M577.23,222.73a33.89,33.89,0,0,1-1.11,4.65A30.16,30.16,0,0,1,564.53,242c-3.84,2.54-8,3.9-12.69,2.7a15,15,0,0,1-4.16-1.76,9.09,9.09,0,0,1-4.5-9.81,28.11,28.11,0,0,1,4.2-10.91c1.81-2.77,4-4.79,7.77-3.77.53.14,1.31-.33,1.88-.68,1.44-.89,2.75-2,4.24-2.78a17.82,17.82,0,0,1,4.48-1.7C572.16,212,577.12,216.14,577.23,222.73Zm-8.32.47c.16-3.32-1.05-4.28-3.9-3.34a14.91,14.91,0,0,0-7.42,5,36.53,36.53,0,0,0-5.28,9.42c-.58,1.57-.27,2.56,1.33,2.73a8.84,8.84,0,0,0,4.38-.57,19.46,19.46,0,0,0,10.47-11.54A12.11,12.11,0,0,0,568.91,223.2Z" transform="translate(-382.47 -153.44)"/><text class="cls-1" transform="translate(40.45 301.19)">COMING SOON</text><path d="M479.85,481.07c2.71,0,3,0,4.1.06a5.62,5.62,0,0,1,1.88.35,3.36,3.36,0,0,1,1.93,1.93,5.62,5.62,0,0,1,.35,1.88c0,1.07.06,1.39.06,4.1s0,3-.06,4.1a5.62,5.62,0,0,1-.35,1.88,3.36,3.36,0,0,1-1.93,1.93,5.62,5.62,0,0,1-1.88.35c-1.07,0-1.39.06-4.1.06s-3,0-4.1-.06a5.62,5.62,0,0,1-1.88-.35,3.36,3.36,0,0,1-1.93-1.93,5.62,5.62,0,0,1-.35-1.88c0-1.07-.06-1.39-.06-4.1s0-3,.06-4.1a5.62,5.62,0,0,1,.35-1.88,3.36,3.36,0,0,1,1.93-1.93,5.62,5.62,0,0,1,1.88-.35c1.07,0,1.39-.06,4.1-.06m0-1.83c-2.76,0-3.1,0-4.18.06a7.45,7.45,0,0,0-2.46.47,5.19,5.19,0,0,0-3,3,7.45,7.45,0,0,0-.47,2.46c0,1.08-.06,1.43-.06,4.18s0,3.1.06,4.18a7.45,7.45,0,0,0,.47,2.46,5.19,5.19,0,0,0,3,3,7.45,7.45,0,0,0,2.46.47c1.08,0,1.43.06,4.18.06s3.1,0,4.18-.06a7.45,7.45,0,0,0,2.46-.47,5.19,5.19,0,0,0,3-3,7.45,7.45,0,0,0,.47-2.46c0-1.08.06-1.43.06-4.18s0-3.1-.06-4.18a7.45,7.45,0,0,0-.47-2.46,5.19,5.19,0,0,0-3-3,7.45,7.45,0,0,0-2.46-.47c-1.08,0-1.43-.06-4.18-.06Z" transform="translate(-382.47 -153.44)"/><path d="M479.85,484.17a5.21,5.21,0,1,0,5.21,5.21A5.21,5.21,0,0,0,479.85,484.17Zm0,8.6a3.38,3.38,0,1,1,3.38-3.38A3.38,3.38,0,0,1,479.85,492.77Z" transform="translate(-382.47 -153.44)"/><circle cx="102.8" cy="330.53" r="1.22"/></svg>