<?xml version="1.0" encoding="utf-8"?>
<!-- Generator: Adobe Illustrator 20.1.0, SVG Export Plug-In . SVG Version: 6.00 Build 0)  -->
<svg version="1.1" id="Layer_1" xmlns="http://www.w3.org/2000/svg" xmlns:xlink="http://www.w3.org/1999/xlink" x="0px" y="0px"
	 viewBox="0 0 960 560" style="enable-background:new 0 0 960 560;" xml:space="preserve">
<style type="text/css">
	.st0{fill:#FFFFFF;}
	.st1{fill:#1A1A1A;}
</style>
<rect class="st0" width="960" height="560"/>
<g>
	<g>
		<path d="M379.4,358.6c2-0.5,3.3-0.9,4.7-1.3c19.7-6.1,39.4-12.4,59.2-18.2c9.4-2.7,19-4.6,28.5-6.6c3.3-0.7,6.9-0.8,10.3-0.6
			c3,0.2,6.1,1.1,9,2c1.4,0.5,2.7,1.6,3.7,2.7c3.2,3.6,2.4,6.4-2.2,7.9c-0.8,0.3-1.6,0.5-2.4,0.7c-14.7,2.8-28.8,7.6-42.9,12.5
			c-13.5,4.7-27,9.5-40.4,14.4c-11.6,4.2-23.3,7.7-35.6,9.2c-3.5,0.4-7.1,0.4-10.7,0.3c-2.7-0.1-5.1-1.1-7.2-2.9
			c-4.1-3.5-4.5-9.1-0.7-12.9c1.5-1.5,3.4-2.7,5.4-3.4c2.2-0.8,3.3-2.1,3.9-4.2c1.6-6.1,3.3-12.2,4.9-18.3
			c6.4-26.1,11-52.5,15.6-78.9c6.5-37.2,14.3-74.2,22.5-111.1c3.8-17.3,7.6-34.7,12.8-51.7c1.4-4.4,2.8-8.9,4.6-13.1
			c1.4-3.4,3.3-6.6,5.2-9.7c0.6-1.1,1.7-2,2.8-2.6c1.7-0.9,3.1,0.4,2.8,2.3c0,0.2-0.1,0.5-0.2,0.7c-5.1,12.2-6.8,25.3-9,38.2
			c-8.6,50.2-16.8,100.4-25.7,150.5c-5.3,29.5-11.7,58.7-17.6,88C380.2,354.3,379.9,356.1,379.4,358.6z"/>
		<path d="M506.5,280.7c1.6-0.6,3-1,4.3-1.5c20.4-7.7,40.8-15.5,61.7-21.7c7.8-2.3,15.8-3.7,24-3.2c1.2,0.1,2.4,0.1,3.5,0.5
			c1.7,0.5,2.1,1.9,1,3.3c-0.7,0.9-1.6,1.7-2.5,2.5c-5.5,5-11.9,8.2-18.7,11.1c-16.4,6.9-32.8,13.7-49.1,20.7
			c-7.1,3.1-13.9,6.8-21,10c-3,1.4-6.2,2.5-9.4,3.1c-3.6,0.7-7.1-0.3-10.1-2.6c-3.4-2.7-4.5-6.7-3.2-10.9c0.8-2.6,1.4-5.3,1.7-8
			c1.2-12.7,3.9-25.2,6.9-37.6c12.6-53.2,25.3-106.5,37.9-159.7c2.6-11.1,4.9-22.4,7.4-33.5c0.5-2.3,1.2-4.6,2.1-6.8
			c0.8-2,2.3-2.8,3.9-2.4c1.9,0.5,2.4,1.9,2.4,3.6c-0.2,3.9-0.3,7.9-1,11.7c-2.7,16-5.5,31.9-8.5,47.9c-5.6,30-11.3,60-17.2,89.9
			c-4.1,21.2-8.6,42.3-12.9,63.4c-1.1,5.6-2.1,11.3-3,16.9C506.5,278.4,506.6,279.3,506.5,280.7z"/>
		<path d="M476.6,141.4c8.5,0.1,15.8,7.8,15.4,17.6c-0.3,5.9-2.6,11.2-6.4,15.6c-5,5.8-11.1,10.5-17.9,14
			c-10.8,5.4-19.3-3.4-19.4-11.2c-0.1-6,0.5-12.1,4.6-17.2c0.7-0.9,1.1-2.1,1.5-3.2c1.9-4.7,4.6-8.9,8.8-11.9
			C466.8,142.5,470.9,141.3,476.6,141.4z M460.8,176.6c4.4-1.8,13.3-9.2,15-12.7c0.9-1.9,1.6-4,1.7-6.1c0.1-4.1-2.7-6.1-6.6-5
			c-1.6,0.4-3.1,1.2-4.5,2.1c-1.7,1.2-3.4,2.6-2.9,5.2c0.2,0.9-0.4,2.1-1.1,2.9c-2.3,3.1-2.4,6.6-2.4,10.2
			C460.1,174.4,460.5,175.4,460.8,176.6z"/>
		<path d="M609.7,136.4c-0.5,2.1-0.7,4.2-1.5,6.2c-3.1,8.1-8.2,14.8-15.5,19.6c-5.1,3.4-10.7,5.2-16.9,3.6c-1.9-0.5-3.9-1.3-5.5-2.3
			c-4.8-3-6.9-7.4-6-13.1c0.9-5.2,2.7-10.1,5.6-14.6c2.4-3.7,5.4-6.4,10.4-5c0.7,0.2,1.7-0.4,2.5-0.9c1.9-1.2,3.7-2.7,5.7-3.7
			c1.9-1,3.9-1.8,6-2.3C602.9,122.1,609.6,127.6,609.7,136.4z M598.6,137c0.2-4.4-1.4-5.7-5.2-4.5c-3.9,1.3-7.4,3.4-9.9,6.7
			c-2.9,3.8-5.4,8-7,12.6c-0.8,2.1-0.4,3.4,1.8,3.6c1.9,0.2,4.1,0,5.8-0.8c6.8-3.1,11.4-8.4,14-15.4
			C598.4,138.5,598.5,137.5,598.6,137z"/>
	</g>
</g>
<g>
	<path class="st1" d="M404.6,438.2c0-4.4,3.3-7.7,7.8-7.7c2,0,3.5,0.7,4.4,1.4l-0.9,2.6c-0.7-0.5-2.1-1.2-3.6-1.2
		c-2.7,0-4.7,2.1-4.7,4.9c0,2.9,1.9,4.9,4.7,4.9c1.6,0,3-0.7,3.7-1.2l0.9,2.6c-0.9,0.7-2.4,1.4-4.6,1.4
		C407.7,445.9,404.6,442.6,404.6,438.2z"/>
	<path class="st1" d="M418.2,438.2c0-4.4,3.2-7.7,7.8-7.7s7.8,3.4,7.8,7.7c0,4.4-3.2,7.7-7.8,7.7S418.2,442.6,418.2,438.2z
		 M421.3,438.2c0,2.9,1.9,4.9,4.6,4.9c2.7,0,4.6-2.1,4.6-4.9c0-2.8-1.9-4.9-4.6-4.9C423.3,433.2,421.3,435.4,421.3,438.2z"/>
	<path class="st1" d="M443.9,440.9l4.3-10.2h3.9v14.9h-2.9V435l-3.9,9.4h-2.8l-3.9-9.4v10.7h-2.9v-14.9h3.9L443.9,440.9z"/>
	<path class="st1" d="M454.9,430.7h3v14.9h-3V430.7z"/>
	<path class="st1" d="M463.7,435.5v10.1h-3v-14.9h3.1l6.4,10.2v-10.2h3v14.9h-3L463.7,435.5z"/>
	<path class="st1" d="M488.9,432.9l-1.9,2c-0.4-0.5-1.7-1.6-3.9-1.6c-2.9,0-4.7,2.2-4.7,5c0,3.1,2,4.9,4.7,4.9
		c2.1,0,3.3-0.9,3.6-1.2v-1.8h-2.8v-2.5h5.7v5.9c-1.6,1.4-3.4,2.5-6.5,2.5c-4.2,0-7.8-3-7.8-7.7c0-4.3,3.2-7.7,7.8-7.7
		C486.1,430.4,488.1,432,488.9,432.9z"/>
	<path class="st1" d="M506,433.7l-2.5,1.1c-0.3-0.7-0.9-1.6-2.2-1.6c-1,0-1.6,0.6-1.6,1.4c0,2.5,6.5,2.1,6.5,6.7
		c0,2.6-1.9,4.5-5,4.5c-3.2,0-4.5-2.2-5-3.5l2.5-1.2c0.4,1,1.2,1.9,2.6,1.9c1.1,0,1.8-0.6,1.8-1.5c0-2.6-6.4-2.1-6.4-6.9
		c0-2.5,1.8-4.2,4.7-4.2C504.4,430.4,505.7,432.6,506,433.7z"/>
	<path class="st1" d="M507.6,438.2c0-4.4,3.2-7.7,7.8-7.7c4.6,0,7.8,3.4,7.8,7.7c0,4.4-3.2,7.7-7.8,7.7
		C510.7,445.9,507.6,442.6,507.6,438.2z M510.7,438.2c0,2.9,1.9,4.9,4.6,4.9c2.7,0,4.6-2.1,4.6-4.9c0-2.8-1.9-4.9-4.6-4.9
		C512.6,433.2,510.7,435.4,510.7,438.2z"/>
	<path class="st1" d="M524.4,438.2c0-4.4,3.2-7.7,7.8-7.7s7.8,3.4,7.8,7.7c0,4.4-3.2,7.7-7.8,7.7S524.4,442.6,524.4,438.2z
		 M527.5,438.2c0,2.9,1.9,4.9,4.6,4.9c2.7,0,4.6-2.1,4.6-4.9c0-2.8-1.9-4.9-4.6-4.9C529.5,433.2,527.5,435.4,527.5,438.2z"/>
	<path class="st1" d="M544.9,435.5v10.1h-3v-14.9h3.1l6.4,10.2v-10.2h3v14.9h-3L544.9,435.5z"/>
</g>
<g>
	<path d="M479.8,480.9c3.6,0,4,0,5.5,0.1c1.3,0.1,2,0.3,2.5,0.5c0.6,0.2,1.1,0.5,1.6,1c0.5,0.5,0.8,0.9,1,1.6
		c0.2,0.5,0.4,1.2,0.5,2.5c0.1,1.4,0.1,1.9,0.1,5.5c0,3.6,0,4-0.1,5.5c-0.1,1.3-0.3,2-0.5,2.5c-0.2,0.6-0.5,1.1-1,1.6
		c-0.5,0.5-0.9,0.8-1.6,1c-0.5,0.2-1.2,0.4-2.5,0.5c-1.4,0.1-1.9,0.1-5.5,0.1c-3.6,0-4,0-5.5-0.1c-1.3-0.1-2-0.3-2.5-0.5
		c-0.6-0.2-1.1-0.5-1.6-1c-0.5-0.5-0.8-0.9-1-1.6c-0.2-0.5-0.4-1.2-0.5-2.5c-0.1-1.4-0.1-1.9-0.1-5.5c0-3.6,0-4,0.1-5.5
		c0.1-1.3,0.3-2,0.5-2.5c0.2-0.6,0.5-1.1,1-1.6c0.5-0.5,0.9-0.8,1.6-1c0.5-0.2,1.2-0.4,2.5-0.5C475.8,480.9,476.2,480.9,479.8,480.9
		 M479.8,478.5c-3.7,0-4.1,0-5.6,0.1c-1.4,0.1-2.4,0.3-3.3,0.6c-0.9,0.3-1.6,0.8-2.4,1.6c-0.8,0.8-1.2,1.5-1.6,2.4
		c-0.3,0.9-0.6,1.8-0.6,3.3c-0.1,1.4-0.1,1.9-0.1,5.6s0,4.1,0.1,5.6c0.1,1.4,0.3,2.4,0.6,3.3c0.3,0.9,0.8,1.6,1.6,2.4
		c0.8,0.8,1.5,1.2,2.4,1.6c0.9,0.3,1.8,0.6,3.3,0.6c1.4,0.1,1.9,0.1,5.6,0.1c3.7,0,4.1,0,5.6-0.1c1.4-0.1,2.4-0.3,3.3-0.6
		c0.9-0.3,1.6-0.8,2.4-1.6c0.8-0.8,1.2-1.5,1.6-2.4c0.3-0.9,0.6-1.8,0.6-3.3c0.1-1.4,0.1-1.9,0.1-5.6c0-3.7,0-4.1-0.1-5.6
		c-0.1-1.4-0.3-2.4-0.6-3.3c-0.3-0.9-0.8-1.6-1.6-2.4c-0.8-0.8-1.5-1.2-2.4-1.6c-0.9-0.3-1.8-0.6-3.3-0.6
		C484,478.5,483.5,478.5,479.8,478.5L479.8,478.5z"/>
	<path d="M479.8,485c-3.8,0-7,3.1-7,7s3.1,7,7,7c3.8,0,7-3.1,7-7S483.7,485,479.8,485z M479.8,496.5c-2.5,0-4.5-2-4.5-4.5
		c0-2.5,2-4.5,4.5-4.5c2.5,0,4.5,2,4.5,4.5C484.4,494.5,482.3,496.5,479.8,496.5z"/>
	<circle cx="487.1" cy="484.8" r="1.6"/>
</g>
</svg>
